General
Complete name                    : Shooter.2007.SWESUB.DVDRip.XviD-Zen_Bud
Format                           : AVI
Format/Info                      : Audio Video Interleave
File size                        : 1.37 GiB
Duration                         : 2h 5mn
Overall bit rate                 : 1 561 Kbps

Video
ID                               : 0
Codec ID/Hint                    : XviD
Duration                         : 2h 5mn
Bit rate                         : 1 102 Kbps
Width                            : 720 pixels
Height                           : 564 pixels
Display aspect ratio             : 16:9
Resolution                       : 8 bits
Colorimetry                      : 4:2:0
Bits/(Pixel*Frame)               : 0.109
Stream size                      : 991 MiB (71%)
Writing library                  : XviD 1.1.2 (UTC 2006-11-01)

Audio
ID                               : 1
Format                           : AC-3
Duration                         : 2h 5mn
Bit rate mode                    : Constant
Bit rate                         : 448 Kbps
Channel(s)                       : 6 channels
Channel positions                : Front: L C R, Side: L R, LFE
Sampling rate                    : 48.0 KHz
Stream size                      : 403 MiB (29%)


